<svg width="58" height="217" viewBox="0 0 58 217" fill="none" xmlns="http://www.w3.org/2000/svg">
<path d="M6 0L11.7735 10H0.226498L6 0ZM6 90.7455V91.7455C5.44772 91.7455 5 91.2977 5 90.7455H6ZM52 90.7455V89.7455C52.5523 89.7455 53 90.1932 53 90.7455H52ZM52 217L46.2265 207H57.7735L52 217ZM51 209.23V199.519H53V209.23H51ZM51 196.605V186.893H53V196.605H51ZM51 183.98V174.268H53V183.98H51ZM51 171.354V161.642H53V171.354H51ZM51 158.729V149.017H53V158.729H51ZM51 146.103V136.391H53V146.103H51ZM51 133.478V123.766H53V133.478H51ZM51 120.852V111.14H53V120.852H51ZM51 108.227V98.515H53V108.227H51ZM51 95.6014V90.7455H53V95.6014H51ZM52 91.7455H47.5769V89.7455H52V91.7455ZM44.9231 91.7455H36.0769V89.7455H44.9231V91.7455ZM33.4231 91.7455H24.5769V89.7455H33.4231V91.7455ZM21.9231 91.7455H13.0769V89.7455H21.9231V91.7455ZM10.4231 91.7455H6V89.7455H10.4231V91.7455ZM5 90.7455V85.7594H7V90.7455H5ZM5 82.7678V72.7958H7V82.7678H5ZM5 69.8042V59.8322H7V69.8042H5ZM5 56.8406V46.8685H7V56.8406H5ZM5 43.8769V33.9049H7V43.8769H5ZM5 30.9133V20.9413H7V30.9133H5ZM5 17.9497V7.97762H7V17.9497H5Z" fill="#9E9E9E"/>
</svg>
